# xmcd
#
# Track frame offsets: 
#        182
#        16232
#        30350
#        43945
#        60827
#        75280
#        91085
#        103810
#        115982
#        130310
#        142590
#        154347
#        164062
#        185427
#
# Disc length: 2697 seconds
#
# Revision: 10
# Processed by: cddbd v1.5.2PL0 Copyright (c) Steve Scherf et al.
# Submitted via: ExactAudioCopy v0.99pb5
#
DISCID=a70a870e
DTITLE=Chris Isaak - Speak of the Devil
DYEAR=1998
DGENRE=Rock
TTITLE0=Please
TTITLE1=Flying
TTITLE2=Walk Slow
TTITLE3=Breaking Apart
TTITLE4=This Time
TTITLE5=Speak of the Devil
TTITLE6=Like the Way She Moves
TTITLE7=Wanderin'
TTITLE8=Don't Get So Down on Yourself
TTITLE9=Black Flowers
TTITLE10=I'm Not Sleepy
TTITLE11=7 Lonely Nights
TTITLE12=Talkin' 'Bout a Home
TTITLE13=Super Magic 2000
EXTD=All songs written by Chris Isaak Music Publishing Co. ASCAP excep
EXTD=t "Breaking Apart" written by Chris Isaak and Diane Warren.\n\n\n
EXTD=\n© 1998 Reprise Record.  Made In USA. ID3G:   0
EXTT0=
EXTT1=
EXTT2=
EXTT3=
EXTT4=
EXTT5=
EXTT6=
EXTT7=
EXTT8=
EXTT9=
EXTT10=
EXTT11=
EXTT12=
EXTT13=
PLAYORDER=
